<svg xmlns="http://www.w3.org/2000/svg" width="25" height="26" viewBox="0 0 25 26" fill="none">
<path fill-rule="evenodd" clip-rule="evenodd" d="M24.444 13.2143C24.444 12.3469 24.366 11.5125 24.2221 10.7124H12.7344V15.4445H19.2991C19.0161 16.9738 18.1562 18.2694 16.8645 19.1367V22.2063H20.8067C23.1133 20.0763 24.444 16.9408 24.444 13.2143Z" fill="#4285F4"/>
<path fill-rule="evenodd" clip-rule="evenodd" d="M12.7345 25.1703C16.0278 25.1703 18.7881 24.0754 20.8068 22.2072L16.8646 19.1377C15.7729 19.8718 14.375 20.3048 12.7345 20.3048C9.557 20.3048 6.86866 18.1529 5.90871 15.2607H1.83398V18.4306C3.84122 22.4287 7.96644 25.1703 12.7345 25.1703Z" fill="#34A853"/>
<path fill-rule="evenodd" clip-rule="evenodd" d="M5.91014 15.2607C5.66619 14.5266 5.52714 13.7424 5.52714 12.9362C5.52714 12.13 5.66619 11.3458 5.91014 10.6117V7.44189H1.83444C1.00842 9.09349 0.537109 10.9616 0.537109 12.9362C0.537109 14.9108 1.00842 16.7789 1.83444 18.4305L5.91014 15.2607Z" fill="#FBBC05"/>
<path fill-rule="evenodd" clip-rule="evenodd" d="M12.7345 5.56763C14.5251 5.56763 16.1327 6.18546 17.3964 7.39785L20.8959 3.88911C18.7833 1.91454 16.0217 0.702148 12.7345 0.702148C7.96644 0.702148 3.84122 3.4438 1.83398 7.44189L5.90871 10.6117C6.86866 7.7196 9.557 5.56763 12.7345 5.56763Z" fill="#EA4335"/>
</svg>